<svg xmlns="http://www.w3.org/2000/svg" width="24" height="24" viewBox="0 0 24 24">
    <path fill="red"
        d="M7.068 13.756c-.756 1.257-2.683.235-2.136-1.08.799-1.494 2.618-2.299 4.191-1.558.643.303 1.216.942 1.557 1.546.415.827-.23 1.658-1.074 1.742-.649.066-.934-.575-1.302-.962-.286-.3-.72-.287-1.008 0a1.476 1.476 0 0 0-.228.3v.012Zm6.792.528c.405.204.974.165 1.314-.157.293-.278.508-.933 1.026-.923.584.012.735.708 1.17.966.954.567 2.115-.505 1.698-1.506-.81-1.502-2.592-2.302-4.191-1.546-.658.311-1.208.928-1.557 1.546a1.205 1.205 0 0 0 .54 1.608v.012Z" />
    <path fill="red"
        d="M12 22.804c6.624 0 12-2.232 12-7.2C24 8.896 20.64 3.52 18.888 1.6a1.202 1.202 0 0 0-.936-.448 1.198 1.198 0 0 0-.84 2.056 17.751 17.751 0 0 1 2.82 4.632A12.28 12.28 0 0 0 12 4.804c-3.036 0-5.82 1.224-7.92 3.036a17.797 17.797 0 0 1 2.808-4.632A1.2 1.2 0 0 0 5.112 1.6 22.38 22.38 0 0 0 0 15.604c0 4.968 5.376 7.2 12 7.2Zm0-14.4c4.644 0 8.4 2.4 8.4 5.04s-3.756 4.56-8.4 4.56-8.4-1.92-8.4-4.56c0-2.64 3.756-5.04 8.4-5.04Z" />
</svg>