<svg xmlns="http://www.w3.org/2000/svg" width="24" height="24" viewBox="0 0 24 24">
    <path fill="red"
        d="M13.085 1.091C7.054 1.091 2.182 5.976 2.182 12H0l3.381 3.718L6.788 12H4.607c0-4.685 3.799-8.484 8.484-8.484 4.685 0 8.484 3.799 8.484 8.484 0 4.685-3.799 8.487-8.484 8.487-2.345 0-4.46-.96-5.994-2.493l-1.715 1.715c1.97 1.975 4.691 3.2 7.703 3.2C19.115 22.909 24 18.024 24 12c0-6.024-4.885-10.909-10.915-10.909Zm-1.633 4.841v7.236l6.192 3.673 1.04-1.758-5.063-3.002V5.932h-2.169Z" />
</svg>