<svg xmlns="http://www.w3.org/2000/svg" width="24" height="24" viewBox="0 0 24 24">
    <path fill="red"
        d="M 12 4 c 1.654 0 3.036 -1.289 3.2 -2.9 c 0.015 -0.15 -0.15 -0.3 -0.3 -0.3 h 0 a 0.65 0.65 90 0 0 -0.237 0.045 c -0.01 0.004 -1.055 0.405 -2.663 0.405 s -2.655 -0.4 -2.663 -0.405 a 0.81 0.81 90 0 0 -0.265 -0.045 h -0.003 A 0.285 0.285 90 0 0 8.8 1.1 C 8.968 2.708 10.35 4 12 4 Z M 23.465 3.695 L 17 1.432 a 0.2 0.2 90 0 0 -0.264 0.158 a 4.8 4.8 90 0 1 -9.469 0 A 0.2 0.2 90 0 0 7 1.432 L 0.536 3.695 A 0.8 0.8 90 0 0 0.014 4.6 l 0.832 4.4 A 0.8 0.8 90 0 0 1.542 9.645 l 2.444 0.276 a 0.4 0.4 90 0 1 0.355 0.409 l -0.367 12.045 a 0.8 0.8 90 0 0 0.455 0.747 A 0.875 0.875 90 0 0 4.8 23.2 H 19.2 a 0.875 0.875 90 0 0 0.371 -0.078 a 0.8 0.8 90 0 0 0.455 -0.747 l -0.367 -12.045 a 0.4 0.4 90 0 1 0.355 -0.409 l 2.444 -0.276 A 0.8 0.8 90 0 0 23.155 9 l 0.832 -4.4 A 0.8 0.8 90 0 0 23.465 3.695 Z" />
</svg>