<svg xmlns="http://www.w3.org/2000/svg" width="24" height="24" viewBox="0 0 24 24">
    <path fill="red"
        d="M9.75 24a1.167 1.167 0 0 1-1.094-.75l-1.868-4.856a.753.753 0 0 0-.43-.431L1.5 16.094A1.174 1.174 0 0 1 .748 15c0-.484.3-.92.752-1.094l4.856-1.868a.753.753 0 0 0 .431-.43L8.656 6.75a1.174 1.174 0 0 1 2.188 0l1.868 4.856a.753.753 0 0 0 .43.431l4.828 1.858c.471.174.784.627.78 1.13-.007.475-.305.9-.75 1.07l-4.856 1.867a.753.753 0 0 0-.431.43l-1.869 4.858c-.172.453-.61.752-1.094.75ZM4.125 8.25a.689.689 0 0 1-.642-.44l-.79-2.056a.342.342 0 0 0-.197-.197L.44 4.767a.689.689 0 0 1 0-1.284l2.055-.79a.343.343 0 0 0 .197-.197L3.476.459a.704.704 0 0 1 .566-.454.69.69 0 0 1 .725.436l.79 2.055c.035.09.107.162.197.197l2.055.79a.689.689 0 0 1 0 1.284l-2.055.79a.342.342 0 0 0-.197.197l-.79 2.055a.689.689 0 0 1-.642.441ZM18.75 12a.751.751 0 0 1-.7-.48l-1.07-2.784a.375.375 0 0 0-.216-.216L13.98 7.45a.751.751 0 0 1 0-1.4l2.783-1.07a.375.375 0 0 0 .216-.216L18.042 2a.772.772 0 0 1 .618-.496.752.752 0 0 1 .79.476l1.07 2.783a.382.382 0 0 0 .216.216l2.783 1.07a.751.751 0 0 1 0 1.4l-2.783 1.07a.375.375 0 0 0-.216.216l-1.07 2.783a.751.751 0 0 1-.7.481Z" />
</svg>