<svg xmlns="http://www.w3.org/2000/svg" width="24" height="24" viewBox="0 0 24 24">
    <path fill="red"
        d="M7.092 22.619A9.774 9.774 0 0 1 12 21.307c1.79 0 3.465.478 4.908 1.312a1.09 1.09 0 1 0 1.093-1.888 11.93 11.93 0 0 0-2.083-.951 8.719 8.719 0 0 0 1.669-1.165 4.365 4.365 0 0 0 5.985-1.968.836.836 0 0 0-.259-1.037 4.339 4.339 0 0 0-2.201-.832 4.365 4.365 0 0 0 2.877-4.412.834.834 0 0 0-.775-.776 4.418 4.418 0 0 0-1.752.235 4.354 4.354 0 0 0 1.447-3.245 4.35 4.35 0 0 0-.849-2.587.835.835 0 0 0-1.037-.258 4.378 4.378 0 0 0-1.933 1.822l.001-.068a4.364 4.364 0 0 0-5.343-4.254.842.842 0 0 0-.653.784 4.363 4.363 0 0 0 4.03 4.548c.972 1.416 1.42 3.216 1.42 4.922 0 3.988-3 7.09-6.545 7.09s-6.546-3.103-6.546-7.09c0-1.706.448-3.506 1.421-4.922a4.363 4.363 0 0 0 4.03-4.548.843.843 0 0 0-.653-.784A4.364 4.364 0 0 0 4.91 5.557a4.383 4.383 0 0 0-1.933-1.822.835.835 0 0 0-1.037.258 4.343 4.343 0 0 0-.849 2.587 4.35 4.35 0 0 0 1.447 3.245A4.36 4.36 0 0 0 .786 9.59a.835.835 0 0 0-.776.776 4.365 4.365 0 0 0 2.878 4.412c-.82.072-1.575.37-2.202.832a.836.836 0 0 0-.258 1.037 4.362 4.362 0 0 0 5.985 1.968 8.68 8.68 0 0 0 1.668 1.165 11.92 11.92 0 0 0-2.082.951 1.09 1.09 0 1 0 1.093 1.888Z" />
</svg>