<svg xmlns="http://www.w3.org/2000/svg" width="24" height="24" viewBox="0 0 24 24">
    <path fill="red"
        d="M20.478 5.094C15.887.528 8.499.428 3.779 4.864c-4.717 4.438-5.064 11.82-.784 16.683l.008.009a.49.49 0 0 0 .05.053c.038.043.08.089.128.139.393.416.944.654 1.515.65a2.05 2.05 0 0 0 1.506-.672 7.864 7.864 0 0 1 11.573 0c.392.426.943.668 1.519.672.575 0 1.125-.242 1.518-.667l.162-.175.009-.009c4.207-4.754 3.99-11.965-.501-16.453Zm-9.292.488a.8.8 0 0 1 1.601 0v1.602a.8.8 0 0 1-1.601 0zM5.58 14.39h-1.6a.8.8 0 0 1 0-1.601h1.6a.8.8 0 0 1 0 1.601zm2.445-4.76a.803.803 0 0 1-1.135 0L5.76 8.493a.8.8 0 1 1 1.13-1.131l1.134 1.13a.803.803 0 0 1 0 1.135zm7.469 1.154-2.377 3.78c-.096.132-.213.25-.351.348a1.508 1.508 0 0 1-1.751-2.452l3.778-2.377a.507.507 0 0 1 .588 0 .505.505 0 0 1 .113.7zm1.588-1.155a.802.802 0 0 1-1.133-1.134l1.133-1.13a.8.8 0 1 1 1.131 1.13zm3.295 11.39zm-.383-6.628h-1.602a.8.8 0 0 1 0-1.601h1.602a.8.8 0 0 1 0 1.601zm0 0" />
</svg>