<svg xmlns="http://www.w3.org/2000/svg" width="24" height="24" viewBox="0 0 24 24">
    <path fill="red"
        d="M19.953 5.543c-4.3-4.277-11.219-4.371-15.64-.215-4.418 4.156-4.743 11.07-.735 15.625l.008.008c.016.02.031.035.047.05.035.04.074.083.12.13.368.39.884.613 1.419.609a1.92 1.92 0 0 0 1.41-.629 7.366 7.366 0 0 1 10.84 0c.367.399.883.625 1.422.629.539 0 1.054-.227 1.422-.625l.152-.164.008-.008c3.941-4.453 3.738-11.207-.469-15.41ZM11.25 6a.75.75 0 0 1 1.5 0v1.5a.75.75 0 0 1-1.5 0ZM6 14.25H4.5a.75.75 0 0 1 0-1.5H6a.75.75 0 0 1 0 1.5Zm2.29-4.46a.752.752 0 0 1-1.063 0L6.168 8.726a.747.747 0 1 1 1.059-1.059l1.062 1.059a.752.752 0 0 1 0 1.062Zm6.995 1.081-2.226 3.54c-.09.124-.2.234-.329.327a1.412 1.412 0 0 1-1.64-2.297l3.539-2.226a.475.475 0 0 1 .55 0 .473.473 0 0 1 .106.656Zm1.488-1.082a.751.751 0 0 1-1.062-1.062l1.062-1.059a.747.747 0 1 1 1.059 1.059Zm3.086 10.668ZM19.5 14.25H18a.75.75 0 0 1 0-1.5h1.5a.75.75 0 0 1 0 1.5Zm0 0" />
</svg>