<svg xmlns="http://www.w3.org/2000/svg" width="24" height="24" viewBox="0 0 24 24">
    <path fill="red"
        d="M16.118 5.169a.553.553 0 0 0 .596.771l5.497-.968a.55.55 0 0 0 .441-.635l-.286-1.612A3.297 3.297 0 0 0 18.853.011a.513.513 0 0 0-.406.287Zm-.67-3.696a.544.544 0 0 0-.577-.769l-4.665.813a.549.549 0 0 0-.408.307L7.483 6.696a.544.544 0 0 0 .578.769l4.665-.812a.549.549 0 0 0 .409-.308Zm-9.23.746-2.794.493a3.296 3.296 0 0 0-2.672 3.82l.286 1.624c.055.297.33.494.635.44l2.418-.43a.538.538 0 0 0 .395-.296L6.813 3a.553.553 0 0 0-.596-.772Zm-5.18 8.177c0-.309.24-.55.55-.55h20.855c.308 0 .549.241.549.55v9.33a3.293 3.293 0 0 1-3.293 3.293H4.33a3.293 3.293 0 0 1-3.293-3.293Zm3.293 3.841A1.1 1.1 0 0 1 5.43 13.14h9.879a1.1 1.1 0 0 1 1.098 1.097 1.1 1.1 0 0 1-1.098 1.098h-9.88a1.1 1.1 0 0 1-1.098-1.098zM5.43 17.53a1.1 1.1 0 0 0-1.098 1.098 1.1 1.1 0 0 0 1.098 1.098h4.39a1.1 1.1 0 0 0 1.098-1.098A1.1 1.1 0 0 0 9.82 17.53zm0 0" />
</svg>