<svg xmlns="http://www.w3.org/2000/svg" width="24" height="24" viewBox="0 0 24 24">
    <path fill="red"
        d="M15.738 5.738a.504.504 0 0 0 .543.703l5.008-.882a.501.501 0 0 0 .402-.579l-.261-1.468a3.004 3.004 0 0 0-3.2-2.473.467.467 0 0 0-.37.262Zm-.61-3.367a.496.496 0 0 0-.526-.7l-4.25.74a.5.5 0 0 0-.372.28L7.871 7.13a.496.496 0 0 0 .527.7l4.25-.74a.5.5 0 0 0 .372-.28Zm-8.41.68L4.173 3.5a3.003 3.003 0 0 0-2.434 3.48L2 8.46c.05.27.3.45.578.4l2.203-.391a.49.49 0 0 0 .36-.27l2.12-4.437a.504.504 0 0 0-.543-.703ZM2 10.5c0-.281.219-.5.5-.5h19c.281 0 .5.219.5.5V19a3 3 0 0 1-3 3H5a3 3 0 0 1-3-3ZM5 14c0-.55.45-1 1-1h9c.55 0 1 .45 1 1s-.45 1-1 1H6c-.55 0-1-.45-1-1Zm1 3c-.55 0-1 .45-1 1s.45 1 1 1h4c.55 0 1-.45 1-1s-.45-1-1-1Zm0 0" />
</svg>