<svg xmlns="http://www.w3.org/2000/svg" width="24" height="24" viewBox="0 0 24 24">
    <path fill="red" d="M12.92 12.92a.92.92 0 1 1-1.84 0 .92.92 0 0 1 1.84 0zm0 0" />
    <path fill="red"
        d="M13.38 1.93v-.55a1.38 1.38 0 0 0-2.76 0v.55A11.01 11.01 0 0 0 5.75 3.8l-.62-.62a1.38 1.38 0 0 0-1.96 0 1.38 1.38 0 0 0 0 1.96l.5.5a11.03 11.03 0 0 0-2.75 7.3A11.1 11.1 0 0 0 12 24a11.1 11.1 0 0 0 11.08-11.08 11.1 11.1 0 0 0-9.7-10.99zM12 15.7a2.77 2.77 0 0 1-2.73-2.3 2.78 2.78 0 0 1 1.8-3.08V6a.92.92 0 0 1 1.85 0v4.31a2.78 2.78 0 0 1 1.81 3.08 2.77 2.77 0 0 1-2.73 2.3zm0 0" />
</svg>