<svg xmlns="http://www.w3.org/2000/svg" width="24" height="24" viewBox="0 0 24 24">
    <path fill="red" d="M12.75 12.75a.75.75 0 1 1-1.5 0 .75.75 0 0 1 1.5 0Zm0 0" />
    <path fill="red"
        d="M13.125 3.82v-.445a1.125 1.125 0 0 0-2.25 0v.445a8.949 8.949 0 0 0-3.957 1.508l-.496-.5a1.125 1.125 0 0 0-1.594 0 1.125 1.125 0 0 0 0 1.594l.402.402A8.965 8.965 0 0 0 3 12.75c0 4.96 4.04 9 9 9s9-4.04 9-9c0-4.582-3.441-8.375-7.875-8.93ZM12 15a2.254 2.254 0 0 1-2.219-1.871 2.255 2.255 0 0 1 1.469-2.5V7.125a.75.75 0 0 1 1.5 0v3.504a2.255 2.255 0 0 1 1.469 2.5A2.254 2.254 0 0 1 12 15Zm0 0" />
</svg>