<svg xmlns="http://www.w3.org/2000/svg" width="24" height="24" viewBox="0 0 24 24">
    <path fill="red"
        d="M12 24C5.372 24 0 18.628 0 12S5.372 0 12 0s12 5.372 12 12-5.372 12-12 12Zm3.924-13.5H14.4a.9.9 0 0 0 0 1.8h3.3a.9.9 0 0 0 .9-.9V7.5a.9.9 0 0 0-1.8 0v.9A5.99 5.99 0 0 0 12 6c-1.844 0-3.485.792-4.592 2.124a.9.9 0 0 0 1.384 1.152C9.556 8.356 10.688 7.8 12 7.8a4.2 4.2 0 0 1 3.924 2.7zm-8.724 6v-.9a6.016 6.016 0 0 0 9.385.284.9.9 0 1 0-1.37-1.166 4.216 4.216 0 0 1-7.01-.918H9.6a.9.9 0 0 0 0-1.8H6.3a.9.9 0 0 0-.9.9v3.6a.9.9 0 0 0 1.8 0z" />
</svg>