<svg xmlns="http://www.w3.org/2000/svg" width="24" height="24" viewBox="0 0 24 24">
    <path fill="red"
        d="M 0.774 16.329 c -1.031 1.031 -1.031 2.702 0 3.734 l 3.112 3.111 c 1.03 1.031 2.702 1.031 3.733 0 l 4.356 -4.355 l -6.844 -6.845 l -4.357 4.355 z M 5.753 11.352 l 6.845 6.845 l 5.599 -5.6 l -6.844 -6.845 l -5.6 5.6 z M 8.896 12.414 h -0.88 v -0.88 h 0.88 v 0.88 z M 10.656 14.174 h -0.88 v -0.88 h 0.88 v 0.88 z M 10.656 12.414 h -0.88 v -0.88 h 0.88 v 0.88 z M 10.656 10.654 h -0.88 v -0.88 h 0.88 v 0.88 z M 15.056 11.534 h 0.88 v 0.88 h -0.88 v -0.88 z M 13.296 9.774 h 0.88 v 0.88 h -0.88 v -0.88 z M 13.296 11.534 h 0.88 v 0.88 h -0.88 v -0.88 z M 13.296 13.294 h 0.88 v 0.88 h -0.88 v -0.88 z M 11.536 8.014 h 0.88 v 0.88 h -0.88 v -0.88 z M 11.536 9.774 h 0.88 v 0.88 h -0.88 v -0.88 z M 11.536 11.534 h 0.88 v 0.88 h -0.88 v -0.88 z M 11.536 13.294 h 0.88 v 0.88 h -0.88 v -0.88 z M 11.536 15.054 h 0.88 v 0.88 h -0.88 v -0.88 z M 23.177 3.885 l -3.112 -3.111 c -1.031 -1.031 -2.702 -1.031 -3.734 0 l -4.356 4.355 l 6.844 6.845 l 4.357 -4.356 c 1.03 -1.03 1.03 -2.702 0.001 -3.733 z" />
</svg>