<svg xmlns="http://www.w3.org/2000/svg" width="24" height="24">
    <path fill="red"
        d="M17.16 2.059a1.01 1.01 0 0 0-.585.518c-.087.189-.094.252-.095.892v.69l-.29.145c-.16.08-.377.207-.483.282l-.192.138-.448-.257c-.742-.425-.779-.441-1.067-.444-.464-.004-.84.29-.965.756-.058.216-.018.468.113.708.125.231.173.268.842.655l.5.289v1.138l-.5.289c-.669.387-.717.424-.842.655-.131.24-.171.492-.113.708.125.466.501.76.965.756.287-.003.325-.019 1.064-.443l.445-.254.259.173c.142.096.361.216.485.268l.227.094v.702c.001.654.007.717.095.906a.982.982 0 0 0 1.624.232c.222-.253.241-.34.241-1.13v-.717l.26-.122c.143-.067.359-.188.48-.268l.22-.146.582.329c.657.372.849.432 1.162.362.728-.163 1.019-1.062.524-1.617-.07-.08-.377-.287-.682-.462l-.553-.318V6.434l.553-.318c.305-.175.612-.382.682-.462.495-.555.204-1.454-.524-1.617-.313-.07-.505-.01-1.159.36l-.578.328-.194-.149a3.129 3.129 0 0 0-.483-.284l-.29-.134v-.7c0-.771-.019-.861-.241-1.113a.99.99 0 0 0-1.039-.286m-11.675.985a3.424 3.424 0 0 0-.998.363c-.292.171-.909.788-1.08 1.08-.164.28-.309.691-.364 1.033-.058.358-.058 8.602 0 8.96.105.654.346 1.108.857 1.62.394.394.668.575 1.087.721.486.168.675.178 3.403.179H11V18.997l-1.63.011c-1.816.013-1.772.007-2.063.299-.21.209-.285.391-.285.693 0 .302.075.484.285.693.31.31-.075.287 4.693.287 4.744 0 4.38.021 4.678-.27a.908.908 0 0 0 .299-.71c.001-.302-.074-.483-.284-.693-.291-.292-.247-.286-2.063-.299L13 18.997V17h2.61c2.728-.001 2.917-.011 3.403-.179.419-.146.693-.327 1.087-.721.728-.728.919-1.295.893-2.651-.015-.789-.039-.881-.3-1.142-.209-.21-.391-.285-.693-.285-.302 0-.484.075-.693.285-.262.261-.283.347-.307 1.213-.019.698-.03.797-.107.94a1.007 1.007 0 0 1-.493.457c-.179.081-.228.081-6.4.081-6.172 0-6.221 0-6.4-.081a.951.951 0 0 1-.505-.497l-.094-.2V10c.001-4.159.002-4.223.082-4.4.101-.222.248-.381.457-.494.157-.085.199-.086 2.44-.106 2.541-.022 2.415-.008 2.713-.307.21-.209.285-.391.285-.693 0-.302-.075-.484-.285-.693-.3-.301-.168-.286-2.713-.293-1.254-.003-2.377.01-2.495.03M17.9 6.091c.171.089.373.298.47.487.118.229.118.623 0 .848-.235.445-.891.668-1.35.459a1.12 1.12 0 0 1-.487-.516c-.088-.21-.075-.578.027-.789.1-.207.379-.468.569-.532.176-.06.623-.035.771.043" />
</svg>