<svg xmlns="http://www.w3.org/2000/svg" width="24" height="24" viewBox="0 0 24 24">
    <path fill="red"
        d="M20.33 0A3.67 3.67 0 0 1 24 3.67v16.66A3.67 3.67 0 0 1 20.33 24H3.67A3.67 3.67 0 0 1 0 20.33V3.67A3.67 3.67 0 0 1 3.67 0Zm0 2H3.67C2.75 2 2 2.75 2 3.67v16.66c0 .92.75 1.67 1.67 1.67h16.66c.92 0 1.67-.75 1.67-1.67V3.67C22 2.75 21.25 2 20.33 2ZM9 12.67A2.33 2.33 0 0 1 11.34 15v2.67A2.33 2.33 0 0 1 9 20H6.34A2.33 2.33 0 0 1 4 17.67V15a2.33 2.33 0 0 1 2.34-2.33zm8.67 0A2.33 2.33 0 0 1 20 15v2.67A2.33 2.33 0 0 1 17.67 20H15a2.33 2.33 0 0 1-2.33-2.33V15A2.33 2.33 0 0 1 15 12.67h2.67zM9 4a2.33 2.33 0 0 1 2.33 2.33V9A2.33 2.33 0 0 1 9 11.33H6.33A2.33 2.33 0 0 1 4 9V6.33A2.33 2.33 0 0 1 6.33 4H9Zm8.66 0A2.33 2.33 0 0 1 20 6.33V9a2.33 2.33 0 0 1-2.34 2.33H15A2.33 2.33 0 0 1 12.66 9V6.33A2.33 2.33 0 0 1 15 4Z" />
</svg>